<svg width="64" height="64" viewBox="0 0 64 64" fill="none" xmlns="http://www.w3.org/2000/svg">
<path d="M50.4248 49.289C48.7662 49.289 47.973 47.8467 47.5764 46.4406L37.6969 13.5211C35.3893 21.2011 33.1538 28.8811 30.7741 36.5611L23.8873 13.5211L13.0704 49.5775H20.8947L17.7578 39.1572C17.5414 38.4721 17.4693 37.787 17.4693 37.102C17.4693 36.3087 17.5775 35.5515 17.7938 34.7944L19.2721 29.8546L25.1854 49.5775H36.6152V49.289C34.9566 49.289 34.1634 47.8467 33.7668 46.4406C31.5673 39.1572 31.5673 39.1572 31.5673 39.1572C31.351 38.4721 31.2789 37.751 31.2789 37.0659C31.2789 36.3087 31.3871 35.5155 31.6034 34.7944L33.0817 29.8546L38.9949 49.5775H50.4248V49.289Z" fill="#EAEAEA"/>
</svg>
