<svg width="21" height="21" viewBox="0 0 21 21" fill="none" xmlns="http://www.w3.org/2000/svg">
<path fill-rule="evenodd" clip-rule="evenodd" d="M10.4286 20.4287C15.9514 20.4287 20.4286 15.9516 20.4286 10.4287C20.4286 4.90586 15.9514 0.428711 10.4286 0.428711C4.90574 0.428711 0.428589 4.90586 0.428589 10.4287C0.428589 15.9516 4.90574 20.4287 10.4286 20.4287ZM3.59823 15.3617L5.2277 13.2859V6.90193L3.78796 5.19434V4.92648H7.69421L10.6853 11.5001L13.3639 4.92648H17.0357V5.19434L15.8527 6.29925V14.2234L17.0357 15.3617V15.5961H11.7121V15.3617L12.9286 14.2234V7.92871L9.95984 15.5961H9.46877L5.99779 7.92871V13.2859L7.61609 15.3617V15.5961H3.59823V15.3617Z" fill="#EAEAEA"/>
</svg>
